<svg xmlns="http://www.w3.org/2000/svg" viewBox="0 0 101.68 27.97"><defs><style>.cls-1{fill:#fff;}</style></defs><g id="Шар_2" data-name="Шар 2"><g id="Layer_1" data-name="Layer 1"><path class="cls-1" d="M68.28,2.82,67,4.1V17.3l1.28,1.27H80.13L82.75,16V13.24L80.2,10.7l2.55-2.55V5.44L80.13,2.82ZM78.91,15.35H70.22V6.05h8.69l.62.61v.58L76.87,9.9v1.6l2.66,2.66v.57Z"/><path class="cls-1" d="M60.75,2.82H50.23L47.62,5.44V16l2.61,2.61H60.75L63.36,16V5.44Zm-.61,12.53h-9.3V6.05h9.3Z"/><path class="cls-1" d="M32.68,2.82,30.07,5.44V16l2.61,2.61h9.45L44.74,16v-.61H33.29V6.05H44.74V5.44L42.13,2.82Z"/><path class="cls-1" d="M99.06,2.82H88.55L85.93,5.44V16l2.62,2.61H99.06L101.68,16V5.44Zm-.6,12.53H89.15V6.05h9.31Z"/><polygon class="cls-1" points="74.54 12.13 72.12 9.26 80.2 9.26 80.2 12.13 74.54 12.13"/><path class="cls-1" d="M36.27,28a1.61,1.61,0,0,1-.63-.12,1.53,1.53,0,0,1-.5-.34,1.52,1.52,0,0,1-.32-.51,1.59,1.59,0,0,1-.12-.62,1.64,1.64,0,0,1,.12-.63,1.38,1.38,0,0,1,.32-.5,1.74,1.74,0,0,1,.5-.35,1.61,1.61,0,0,1,.63-.12,1.64,1.64,0,0,1,.65.12,2,2,0,0,1,.49.34l-.35.35a1,1,0,0,0-.34-.24,1.25,1.25,0,0,0-.45-.08.93.93,0,0,0-.42.08.86.86,0,0,0-.33.23.84.84,0,0,0-.22.35,1.25,1.25,0,0,0-.08.45,1.23,1.23,0,0,0,.08.44,1,1,0,0,0,.22.36,1,1,0,0,0,.33.23,1.08,1.08,0,0,0,.42.08,1.14,1.14,0,0,0,.48-.09,1,1,0,0,0,.33-.24l.35.35a1.58,1.58,0,0,1-.5.34A1.73,1.73,0,0,1,36.27,28Z"/><path class="cls-1" d="M40,28a1.59,1.59,0,0,1-.62-.12,1.5,1.5,0,0,1-.51-.35,1.58,1.58,0,0,1-.34-.5,1.68,1.68,0,0,1-.12-.63,1.59,1.59,0,0,1,.12-.62,1.75,1.75,0,0,1,.34-.51,1.58,1.58,0,0,1,2.58.51,1.64,1.64,0,0,1,.12.63,1.59,1.59,0,0,1-.12.62,1.59,1.59,0,0,1-.84.85A1.54,1.54,0,0,1,40,28Zm0-.48a1,1,0,0,0,.55-.15A.93.93,0,0,0,40.9,27a1.21,1.21,0,0,0,.14-.58,1.23,1.23,0,0,0-.08-.44.84.84,0,0,0-.22-.35.94.94,0,0,0-.33-.23,1.17,1.17,0,0,0-1,.06.93.93,0,0,0-.37.39,1.15,1.15,0,0,0-.14.57,1.29,1.29,0,0,0,.08.45.84.84,0,0,0,.22.35.86.86,0,0,0,.33.23A1,1,0,0,0,40,27.49Z"/><path class="cls-1" d="M42.88,27.93V24.82h.35l.16.59v2.52Zm2.15,0L43.17,25.5l.06-.68,1.86,2.43Zm0,0-.16-.55V24.82h.51v3.11Z"/><path class="cls-1" d="M46.63,25.29v-.47h2.53v.47Zm1,2.64v-3h.51v3Z"/><path class="cls-1" d="M50.4,27.93V24.82h.51v3.11Zm.35-1.32v-.42h.79a.52.52,0,0,0,.36-.12.44.44,0,0,0,.13-.34.44.44,0,0,0-.13-.33.45.45,0,0,0-.36-.13h-.79v-.45h.81a1.08,1.08,0,0,1,.52.12,1,1,0,0,1,.34.32.9.9,0,0,1,.12.46.89.89,0,0,1-.12.47.85.85,0,0,1-.34.31,1.21,1.21,0,0,1-.52.11Zm1.35,1.32L51,26.58l.47-.17,1.26,1.52Z"/><path class="cls-1" d="M53.59,27.93l1.28-3.11h.35l1.27,3.11h-.55l-1-2.52h.19l-1,2.52Zm.63-.6v-.44h1.65v.44Z"/><path class="cls-1" d="M58.92,28a1.59,1.59,0,0,1-.62-.12,1.43,1.43,0,0,1-.5-.34,1.72,1.72,0,0,1-.33-.51,1.8,1.8,0,0,1-.11-.62,1.85,1.85,0,0,1,.11-.63,1.56,1.56,0,0,1,.33-.5,1.61,1.61,0,0,1,.5-.35,1.59,1.59,0,0,1,.62-.12,1.66,1.66,0,0,1,.66.12,1.82,1.82,0,0,1,.48.34l-.34.35a1,1,0,0,0-.34-.24,1.26,1.26,0,0,0-.46-.08,1,1,0,0,0-.42.08,1,1,0,0,0-.33.23.93.93,0,0,0-.21.35,1.25,1.25,0,0,0-.08.45,1.23,1.23,0,0,0,.08.44,1.07,1.07,0,0,0,.21.36,1.23,1.23,0,0,0,.33.23,1.16,1.16,0,0,0,.42.08,1.14,1.14,0,0,0,.48-.09,1,1,0,0,0,.34-.24l.35.35a1.63,1.63,0,0,1-.51.34A1.69,1.69,0,0,1,58.92,28Z"/><path class="cls-1" d="M61.05,25.29v-.47h2.53v.47Zm1,2.64v-3h.51v3Z"/><path class="cls-1" d="M66.05,28a1.56,1.56,0,0,1-.62-.12,1.41,1.41,0,0,1-.51-.35,1.43,1.43,0,0,1-.34-.5,1.68,1.68,0,0,1-.12-.63,1.59,1.59,0,0,1,.12-.62,1.55,1.55,0,0,1,1.46-1,1.59,1.59,0,0,1,.62.12,1.7,1.7,0,0,1,.5.34,1.75,1.75,0,0,1,.34.51,1.64,1.64,0,0,1,.12.63,1.59,1.59,0,0,1-.12.62,1.75,1.75,0,0,1-.34.51,1.53,1.53,0,0,1-1.11.46Zm0-.48a1,1,0,0,0,.55-.15A.93.93,0,0,0,67,27a1.21,1.21,0,0,0,.14-.58,1.23,1.23,0,0,0-.08-.44,1,1,0,0,0-.22-.35.94.94,0,0,0-.33-.23,1,1,0,0,0-.43-.08,1,1,0,0,0-.55.14.93.93,0,0,0-.37.39,1.15,1.15,0,0,0-.14.57,1.29,1.29,0,0,0,.08.45.84.84,0,0,0,.22.35.86.86,0,0,0,.33.23A1,1,0,0,0,66,27.49Z"/><path class="cls-1" d="M68.94,27.93V24.82h.51v3.11Zm.35-1.32v-.42h.78a.53.53,0,0,0,.37-.12.44.44,0,0,0,.13-.34.44.44,0,0,0-.13-.33.47.47,0,0,0-.36-.13h-.79v-.45h.81a1,1,0,0,1,.51.12.84.84,0,0,1,.47.78.89.89,0,0,1-.12.47.81.81,0,0,1-.35.31,1.13,1.13,0,0,1-.51.11Zm1.35,1.32-1.09-1.35.48-.17,1.25,1.52Z"/><path class="cls-1" d="M72.3,25.91l.3-.56.16-.05-.06.09a.1.1,0,0,1-.09,0,.24.24,0,0,1-.18-.09.29.29,0,0,1-.09-.22.33.33,0,0,1,.1-.24.31.31,0,0,1,.46,0,.33.33,0,0,1,.1.24.36.36,0,0,1,0,.14l-.09.19-.32.61Z"/><path class="cls-1" d="M75.05,28a1.32,1.32,0,0,1-.62-.13,1.41,1.41,0,0,1-.46-.39l.34-.35a.85.85,0,0,0,.31.29.88.88,0,0,0,.45.11.71.71,0,0,0,.41-.11.34.34,0,0,0,.15-.29.34.34,0,0,0-.08-.25.6.6,0,0,0-.21-.17l-.28-.11a2.08,2.08,0,0,1-.32-.12,1.18,1.18,0,0,1-.29-.16.64.64,0,0,1-.21-.25.92.92,0,0,1-.08-.4.78.78,0,0,1,.14-.46.88.88,0,0,1,.36-.3,1.27,1.27,0,0,1,.52-.1,1.19,1.19,0,0,1,.54.12,1.05,1.05,0,0,1,.4.31l-.35.34a.94.94,0,0,0-.28-.22.67.67,0,0,0-.33-.08.64.64,0,0,0-.36.1.32.32,0,0,0-.13.26.36.36,0,0,0,.08.23A.55.55,0,0,0,75,26l.29.12a2,2,0,0,1,.31.12.92.92,0,0,1,.29.17.71.71,0,0,1,.21.27.83.83,0,0,1,.08.41.79.79,0,0,1-.29.66A1.23,1.23,0,0,1,75.05,28Z"/><path class="cls-1" d="M79.14,27.93V24.82h.51v3.11Zm.35,0v-.44h.89a.43.43,0,0,0,.36-.15.48.48,0,0,0,.13-.34.53.53,0,0,0-.06-.24.4.4,0,0,0-.17-.17.44.44,0,0,0-.26-.07h-.89v-.44h.81a.46.46,0,0,0,.32-.11.36.36,0,0,0,.12-.3.38.38,0,0,0-.12-.3.46.46,0,0,0-.32-.1h-.81v-.45h.83a1,1,0,0,1,.52.12.81.81,0,0,1,.31.3.76.76,0,0,1,.1.39.73.73,0,0,1-.13.43,1.05,1.05,0,0,1-.4.3l0-.16a1,1,0,0,1,.46.34.8.8,0,0,1,.16.51.86.86,0,0,1-.12.44.88.88,0,0,1-.34.32,1.19,1.19,0,0,1-.56.12Z"/><path class="cls-1" d="M83.89,28a1.23,1.23,0,0,1-.63-.16,1.21,1.21,0,0,1-.44-.43,1.23,1.23,0,0,1-.16-.63V24.82h.51v1.92a.72.72,0,0,0,.1.4.6.6,0,0,0,.25.25.69.69,0,0,0,.37.1.66.66,0,0,0,.37-.1.6.6,0,0,0,.25-.25.71.71,0,0,0,.1-.39V24.82h.51v1.93a1.28,1.28,0,0,1-.16.63,1.14,1.14,0,0,1-.44.43A1.18,1.18,0,0,1,83.89,28Z"/><path class="cls-1" d="M86.55,27.93V24.82h.51v3.11Zm.35,0v-.47h.82a1.13,1.13,0,0,0,.56-.13,1,1,0,0,0,.38-.39,1.14,1.14,0,0,0,.13-.57,1,1,0,0,0-.14-.56.93.93,0,0,0-.38-.38,1.1,1.1,0,0,0-.55-.14H86.9v-.47h.83a1.61,1.61,0,0,1,.63.12,1.56,1.56,0,0,1,.5.33,1.54,1.54,0,0,1,.34.49,1.77,1.77,0,0,1,0,1.23,1.54,1.54,0,0,1-.34.49,1.56,1.56,0,0,1-.5.33,1.59,1.59,0,0,1-.62.12Z"/><path class="cls-1" d="M90.63,27.93V24.82h.51v3.11Zm.35,0v-.47h.82a1.13,1.13,0,0,0,.56-.13,1,1,0,0,0,.38-.39,1.14,1.14,0,0,0,.13-.57,1,1,0,0,0-.14-.56.93.93,0,0,0-.38-.38,1.1,1.1,0,0,0-.55-.14H91v-.47h.83a1.61,1.61,0,0,1,.63.12,1.56,1.56,0,0,1,.5.33,1.54,1.54,0,0,1,.34.49,1.77,1.77,0,0,1,0,1.23,1.54,1.54,0,0,1-.34.49,1.56,1.56,0,0,1-.5.33,1.59,1.59,0,0,1-.62.12Z"/><path class="cls-1" d="M95.68,26.69l-1.21-1.87h.59l1,1.49h-.28l1-1.49h.58L96,26.69Zm-.07,1.24V26.37h.51v1.56Z"/><polygon class="cls-1" points="3.68 13.8 3.68 7.43 0 9.56 0 15.93 5.52 19.11 9.2 16.99 3.68 13.8"/><path class="cls-1" d="M12.87,2.12,9.2,0,5.52,2.12h0L1,4.71a2.09,2.09,0,0,0-1,1.8V9.56L9.2,4.25Z"/><polygon class="cls-1" points="15.51 3.64 11.83 5.77 14.71 7.43 14.71 10.83 18.39 8.71 18.39 5.31 15.51 3.64"/><path class="cls-1" d="M14.71,13.8,9.2,17h0L5.52,19.11l3.67,2.13h0l8.15-4.71a2.09,2.09,0,0,0,1-1.8V11.68L14.71,13.8Z"/></g></g></svg>