<svg xmlns="http://www.w3.org/2000/svg" viewBox="0 0 200.05 56.88"><defs><style>.cls-1{fill:#fff;}.cls-2{fill:#f24444;}</style></defs><g id="Шар_2" data-name="Шар 2"><g id="Layer_1" data-name="Layer 1"><path class="cls-1" d="M132.13,5.74l-2.59,2.59V35.17l2.59,2.59h24.11l5.32-5.32V26.92l-5.17-5.17,5.17-5.17V11.06l-5.32-5.32Zm21.63,25.47H136.09V12.29h17.67L155,13.54v1.18l-5.41,5.4v3.26L155,28.79V30Z"/><path class="cls-1" d="M116.83,5.74H95.44l-5.31,5.32V32.44l5.31,5.32h21.39l5.31-5.32V11.06Zm-1.24,25.47H96.68V12.29h18.91Z"/><path class="cls-1" d="M59.76,5.74l-5.31,5.32V32.44l5.31,5.32H79l5.32-5.32V31.21H61V12.29H84.28V11.06L79,5.74Z"/><path class="cls-1" d="M194.74,5.74H173.35L168,11.06V32.44l5.32,5.32h21.39l5.31-5.32V11.06ZM193.5,31.21H174.59V12.29H193.5Z"/><polygon class="cls-1" points="144.87 24.67 139.95 18.83 156.39 18.83 156.39 24.67 144.87 24.67"/><path class="cls-1" d="M67.05,56.88a3.13,3.13,0,0,1-1.27-.25,3,3,0,0,1-1-.69,3.26,3.26,0,0,1-.67-1,3.33,3.33,0,0,1-.23-1.27,3.28,3.28,0,0,1,.23-1.26,3.28,3.28,0,0,1,4.27-1.73,3.31,3.31,0,0,1,1,.69l-.71.7a1.75,1.75,0,0,0-.68-.48,2.45,2.45,0,0,0-.93-.17,2.2,2.2,0,0,0-.86.16,1.85,1.85,0,0,0-.67.47,2.07,2.07,0,0,0-.44.71,2.67,2.67,0,0,0-.15.91,2.63,2.63,0,0,0,.15.91,2,2,0,0,0,.44.72,2,2,0,0,0,.67.47,2.57,2.57,0,0,0,1.84,0,2.2,2.2,0,0,0,.68-.48l.7.7a3.15,3.15,0,0,1-1,.7A3.34,3.34,0,0,1,67.05,56.88Z"/><path class="cls-1" d="M74.61,56.88a3.12,3.12,0,0,1-1.26-.25,3.3,3.3,0,0,1-1-.7,3.37,3.37,0,0,1-.69-1,3.33,3.33,0,0,1,0-2.53,3.45,3.45,0,0,1,.69-1,3,3,0,0,1,1-.69,3.28,3.28,0,0,1,2.51,0,3.11,3.11,0,0,1,1,.69,3.37,3.37,0,0,1,.69,1,3.29,3.29,0,0,1,.24,1.26,3.16,3.16,0,0,1-.93,2.3,3.15,3.15,0,0,1-1,.7A3.07,3.07,0,0,1,74.61,56.88Zm0-1a2.17,2.17,0,0,0,1.12-.29,2.09,2.09,0,0,0,.76-.8,2.48,2.48,0,0,0,.27-1.18,2.36,2.36,0,0,0-.16-.9,2,2,0,0,0-1.12-1.18,2.28,2.28,0,0,0-.87-.16,2,2,0,0,0-1.88,1.07,2.69,2.69,0,0,0-.11,2.09,2,2,0,0,0,.44.72,1.9,1.9,0,0,0,.68.46A2.21,2.21,0,0,0,74.6,55.89Z"/><path class="cls-1" d="M80.49,56.79V50.48h.72l.32,1.19v5.12Zm4.38,0-3.78-4.93.12-1.38L85,55.41Zm0,0-.32-1.11v-5.2h1v6.31Z"/><path class="cls-1" d="M88.11,51.42v-.94h5.15v.94Zm2.06,5.37V50.66h1v6.13Z"/><path class="cls-1" d="M95.79,56.79V50.48h1v6.31Zm.71-2.68v-.86h1.59a1.09,1.09,0,0,0,.75-.24,1,1,0,0,0,0-1.36,1,1,0,0,0-.74-.27H96.5v-.9h1.65a2.19,2.19,0,0,1,1,.24,1.74,1.74,0,0,1,1,1.58,1.73,1.73,0,0,1-.25,1,1.61,1.61,0,0,1-.7.64,2.31,2.31,0,0,1-1,.22Zm2.75,2.68L97,54.05l1-.35,2.56,3.09Z"/><path class="cls-1" d="M102.28,56.79l2.6-6.31h.72l2.58,6.31h-1.12l-2-5.11h.38l-2,5.11Zm1.28-1.22v-.9h3.35v.9Z"/><path class="cls-1" d="M113.12,56.88a3.13,3.13,0,0,1-1.27-.25,3,3,0,0,1-1-.69,3.1,3.1,0,0,1-.67-1,3.34,3.34,0,0,1-.24-1.27,3.29,3.29,0,0,1,.24-1.26,3,3,0,0,1,.67-1,3.21,3.21,0,0,1,4.59,0l-.7.7a1.83,1.83,0,0,0-.68-.48,2.45,2.45,0,0,0-.93-.17,2.16,2.16,0,0,0-.86.16,1.85,1.85,0,0,0-.67.47,2.07,2.07,0,0,0-.44.71,2.67,2.67,0,0,0-.15.91,2.63,2.63,0,0,0,.15.91,2,2,0,0,0,.44.72,2,2,0,0,0,.67.47,2.35,2.35,0,0,0,.86.16,2.42,2.42,0,0,0,1-.18,2.2,2.2,0,0,0,.68-.48l.7.7a3.15,3.15,0,0,1-1,.7A3.34,3.34,0,0,1,113.12,56.88Z"/><path class="cls-1" d="M117.44,51.42v-.94h5.14v.94Zm2,5.37V50.66h1v6.13Z"/><path class="cls-1" d="M127.6,56.88a3.12,3.12,0,0,1-1.26-.25,3.19,3.19,0,0,1-1-.7,3.05,3.05,0,0,1-.69-1,3.33,3.33,0,0,1,0-2.53,3.24,3.24,0,0,1,.68-1,3.07,3.07,0,0,1,1-.69,3.3,3.3,0,0,1,2.52,0,3,3,0,0,1,1,.69,3.05,3.05,0,0,1,.69,1,3.12,3.12,0,0,1,.25,1.26,3.27,3.27,0,0,1-.93,2.3,3.26,3.26,0,0,1-1,.7A3.1,3.1,0,0,1,127.6,56.88Zm0-1a2.15,2.15,0,0,0,1.12-.29,2,2,0,0,0,.76-.8,2.48,2.48,0,0,0,.28-1.18,2.57,2.57,0,0,0-.16-.9,2.15,2.15,0,0,0-.45-.71,1.89,1.89,0,0,0-.68-.47,2.21,2.21,0,0,0-.87-.16,2.13,2.13,0,0,0-1.11.28,2.06,2.06,0,0,0-.76.79,2.47,2.47,0,0,0-.28,1.17,2.69,2.69,0,0,0,.16.92,2.18,2.18,0,0,0,.44.72,2,2,0,0,0,.68.46A2.29,2.29,0,0,0,127.58,55.89Z"/><path class="cls-1" d="M133.48,56.79V50.48h1v6.31Zm.71-2.68v-.86h1.6a1.06,1.06,0,0,0,.74-.24,1,1,0,0,0,0-1.36,1,1,0,0,0-.73-.27h-1.61v-.9h1.65a2.2,2.2,0,0,1,1,.24,1.76,1.76,0,0,1,.7.65,1.79,1.79,0,0,1,.24.93,1.81,1.81,0,0,1-.24,1,1.67,1.67,0,0,1-.7.64,2.32,2.32,0,0,1-1,.22Zm2.75,2.68-2.21-2.74,1-.35,2.55,3.09Z"/><path class="cls-1" d="M140.3,52.69l.62-1.15.33-.09a.83.83,0,0,1-.13.18.21.21,0,0,1-.17.07.53.53,0,0,1-.38-.17.61.61,0,0,1-.18-.45.7.7,0,0,1,.2-.49.66.66,0,0,1,.95,0,.67.67,0,0,1,.21.49,1.11,1.11,0,0,1-.05.28,3,3,0,0,1-.18.4L140.85,53Z"/><path class="cls-1" d="M145.91,56.88a2.74,2.74,0,0,1-1.27-.27,3,3,0,0,1-.94-.79l.71-.71a1.93,1.93,0,0,0,.62.59,1.81,1.81,0,0,0,.92.22,1.43,1.43,0,0,0,.83-.22.69.69,0,0,0,.31-.6.76.76,0,0,0-.16-.51,1.33,1.33,0,0,0-.43-.33,3,3,0,0,0-.58-.23c-.22-.07-.43-.15-.64-.24a2.81,2.81,0,0,1-.59-.33,1.43,1.43,0,0,1-.43-.51,1.87,1.87,0,0,1-.16-.8,1.6,1.6,0,0,1,.28-1,1.76,1.76,0,0,1,.74-.6,2.69,2.69,0,0,1,1-.2,2.51,2.51,0,0,1,1.11.24,2.39,2.39,0,0,1,.8.62l-.71.71a1.8,1.8,0,0,0-.56-.46,1.44,1.44,0,0,0-.67-.15,1.33,1.33,0,0,0-.74.19.64.64,0,0,0-.26.53.65.65,0,0,0,.16.47,1.42,1.42,0,0,0,.43.3l.58.23c.22.07.43.15.64.24a2.19,2.19,0,0,1,.59.35,1.54,1.54,0,0,1,.43.54,1.88,1.88,0,0,1,.16.84,1.64,1.64,0,0,1-.6,1.34A2.47,2.47,0,0,1,145.91,56.88Z"/><path class="cls-1" d="M154.22,56.79V50.48h1v6.31Zm.71,0v-.9h1.81a.92.92,0,0,0,.74-.3,1,1,0,0,0,.26-.69,1.13,1.13,0,0,0-.11-.48.93.93,0,0,0-.35-.36,1,1,0,0,0-.54-.14h-1.81V53h1.66a1,1,0,0,0,.65-.21.9.9,0,0,0,0-1.22,1,1,0,0,0-.65-.21h-1.66v-.9h1.69a2.25,2.25,0,0,1,1.06.23,1.61,1.61,0,0,1,.63.61,1.56,1.56,0,0,1,.21.79,1.39,1.39,0,0,1-.28.87,1.89,1.89,0,0,1-.8.62l.08-.33a2.15,2.15,0,0,1,.93.69,1.68,1.68,0,0,1,.33,1,1.72,1.72,0,0,1-.24.89,1.7,1.7,0,0,1-.7.65,2.34,2.34,0,0,1-1.14.25Z"/><path class="cls-1" d="M163.88,56.88a2.61,2.61,0,0,1-1.28-.32,2.53,2.53,0,0,1-.89-.89,2.49,2.49,0,0,1-.33-1.28V50.48h1v3.9a1.58,1.58,0,0,0,.2.8,1.26,1.26,0,0,0,.53.52,1.43,1.43,0,0,0,.74.19,1.39,1.39,0,0,0,.75-.19,1.3,1.3,0,0,0,.52-.52,1.68,1.68,0,0,0,.19-.79V50.48h1V54.4a2.41,2.41,0,0,1-1.21,2.16A2.53,2.53,0,0,1,163.88,56.88Z"/><path class="cls-1" d="M169.29,56.79V50.48h1v6.31Zm.72,0v-.95h1.66a2.24,2.24,0,0,0,1.14-.28,1.9,1.9,0,0,0,.76-.78,2.29,2.29,0,0,0,.28-1.16,2.35,2.35,0,0,0-.28-1.14,2.06,2.06,0,0,0-.77-.78,2.34,2.34,0,0,0-1.13-.28H170v-.94h1.68a3.3,3.3,0,0,1,1.27.24,3,3,0,0,1,1.71,1.66,3.38,3.38,0,0,1,0,2.5,3,3,0,0,1-.68,1,3.07,3.07,0,0,1-1,.67,3.29,3.29,0,0,1-1.26.24Z"/><path class="cls-1" d="M177.59,56.79V50.48h1v6.31Zm.71,0v-.95H180a2.22,2.22,0,0,0,1.14-.28,1.87,1.87,0,0,0,.77-.78,2.39,2.39,0,0,0,.27-1.16,2.34,2.34,0,0,0-.27-1.14,2.09,2.09,0,0,0-.78-.78,2.28,2.28,0,0,0-1.13-.28H178.3v-.94H180a3.3,3.3,0,0,1,1.27.24,3.2,3.2,0,0,1,1,.66,3.11,3.11,0,0,1,.68,1,3.25,3.25,0,0,1,0,2.5,3,3,0,0,1-.67,1,3.07,3.07,0,0,1-1,.67,3.29,3.29,0,0,1-1.26.24Z"/><path class="cls-1" d="M187.86,54.26l-2.46-3.78h1.2l1.92,3H188l1.92-3h1.18l-2.48,3.78Zm-.14,2.53V53.62h1v3.17Z"/><polygon class="cls-2" points="7.48 28.07 7.48 15.11 0 19.43 0 32.38 11.22 38.86 18.7 34.54 7.48 28.07"/><path class="cls-2" d="M26.18,4.32,18.7,0,11.22,4.32h0L2.11,9.57A4.25,4.25,0,0,0,0,13.24v6.19L18.7,8.63Z"/><polygon class="cls-2" points="31.53 7.41 24.05 11.72 29.91 15.11 29.91 22.02 37.39 17.71 37.39 10.79 31.53 7.41"/><path class="cls-2" d="M29.91,28.07,18.7,34.54h0l-7.48,4.32,7.48,4.32h0L35.28,33.6a4.21,4.21,0,0,0,2.11-3.66V23.75l-7.48,4.32Z"/></g></g></svg>